<svg id="visual" viewBox="0 0 900 600" width="900" height="600" xmlns="http://www.w3.org/2000/svg" xmlns:xlink="http://www.w3.org/1999/xlink" version="1.1"><rect x="0" y="0" width="900" height="600" fill="#070928"></rect><defs><linearGradient id="grad1_0" x1="33.3%" y1="0%" x2="100%" y2="100%"><stop offset="20%" stop-color="#070928" stop-opacity="1"></stop><stop offset="80%" stop-color="#070928" stop-opacity="1"></stop></linearGradient></defs><defs><linearGradient id="grad2_0" x1="0%" y1="0%" x2="66.7%" y2="100%"><stop offset="20%" stop-color="#070928" stop-opacity="1"></stop><stop offset="80%" stop-color="#070928" stop-opacity="1"></stop></linearGradient></defs><g transform="translate(900, 0)"><path d="M0 486.7C-59.3 472.8 -118.6 458.8 -181.8 438.8C-244.9 418.9 -312 393 -344.2 344.2C-376.4 295.3 -373.8 223.5 -391.7 162.3C-409.7 101.1 -448.2 50.5 -486.7 0L0 0Z" fill="#3456ff"></path></g><g transform="translate(0, 600)"><path d="M0 -486.7C42 -431.6 84 -376.4 150 -362.2C216 -348 306.1 -374.7 344.2 -344.2C382.3 -313.6 368.3 -225.7 383.4 -158.8C398.5 -91.9 442.6 -45.9 486.7 0L0 0Z" fill="#3456ff"></path></g></svg>